<svg width="533" height="166" viewBox="0 0 533 166" fill="none" xmlns="http://www.w3.org/2000/svg">
<path d="M203.752 44.8H226.792V56.32H208.36L208.072 56.896L223.432 84.928C226.568 90.56 228.136 94.848 228.136 97.792C228.136 104.256 225.992 108.992 221.704 112H196.264V100.864H216.136L216.424 100.288L199.144 69.28C196.648 64.8 195.4 61.152 195.4 58.336C195.4 51.68 198.184 47.168 203.752 44.8ZM256.054 73.024H248.854C247.894 74.176 247.094 75.776 246.454 77.824C245.878 79.872 245.59 81.856 245.59 83.776H259.318C259.446 81.856 259.19 79.872 258.55 77.824C257.91 75.712 257.078 74.112 256.054 73.024ZM269.11 101.92V112H244.726C240.246 108.992 237.078 105.28 235.222 100.864C233.43 96.384 232.534 91.872 232.534 87.328C232.534 76.832 236.502 68.704 244.438 62.944H259.99C264.278 66.08 267.19 69.408 268.726 72.928C270.262 76.448 271.03 80 271.03 83.584C271.03 87.168 270.742 90.24 270.166 92.8H246.262C246.454 94.272 246.998 95.968 247.894 97.888C248.854 99.744 249.878 101.088 250.966 101.92H269.11ZM290.144 44.8V112H277.472V44.8H290.144ZM311.05 44.8V112H298.378V44.8H311.05ZM319.764 112V44.8H354.804V56.32H332.916V73.12H351.924V84.256H332.916V112H319.764ZM380.108 89.824H369.836C368.492 91.488 367.82 93.568 367.82 96.064C367.82 98.56 368.524 100.512 369.932 101.92H380.108V89.824ZM359.468 62.944H383.276C387.116 65.248 389.644 67.904 390.86 70.912C392.076 73.856 392.684 77.888 392.684 83.008V97.408C392.684 102.72 392.812 107.584 393.068 112H382.124L380.396 108.544C377.9 110.848 374.38 112 369.836 112H363.788C358.348 108.416 355.628 103.264 355.628 96.544C355.628 89.76 358.412 84.416 363.98 80.512H373.004C375.5 80.512 377.836 81.28 380.012 82.816V78.016C380.012 75.52 378.924 73.856 376.748 73.024H359.468V62.944ZM405.741 62.944H426.957V73.024H411.981L421.101 86.56C425.197 92.384 427.469 96.384 427.917 98.56C428.173 99.584 428.301 100.64 428.301 101.728C428.301 106.272 426.605 109.696 423.213 112H398.733V101.92H416.301L406.029 86.848C405.581 86.144 404.877 85.152 403.917 83.872C403.021 82.592 402.317 81.568 401.805 80.8C401.293 79.968 400.941 79.36 400.749 78.976C400.557 78.592 400.301 78.112 399.98 77.536C399.661 76.896 399.437 76.352 399.309 75.904C399.053 74.688 398.925 73.696 398.925 72.928C398.925 68.256 401.197 64.928 405.741 62.944ZM437.383 90.592V73.024H430.759V62.944H437.383V49.6H450.151V62.944H458.023V73.024H450.151V93.664C450.151 97.568 450.823 100.32 452.167 101.92H458.023V112H444.391C440.999 108.864 438.951 105.472 438.247 101.824C437.671 98.752 437.383 95.008 437.383 90.592ZM485.648 73.024H478.448C477.488 74.176 476.688 75.776 476.048 77.824C475.472 79.872 475.184 81.856 475.184 83.776H488.912C489.04 81.856 488.784 79.872 488.144 77.824C487.504 75.712 486.672 74.112 485.648 73.024ZM498.704 101.92V112H474.32C469.84 108.992 466.672 105.28 464.816 100.864C463.024 96.384 462.128 91.872 462.128 87.328C462.128 76.832 466.096 68.704 474.032 62.944H489.584C493.872 66.08 496.784 69.408 498.32 72.928C499.856 76.448 500.624 80 500.624 83.584C500.624 87.168 500.336 90.24 499.76 92.8H475.856C476.048 94.272 476.592 95.968 477.488 97.888C478.448 99.744 479.472 101.088 480.56 101.92H498.704ZM507.162 112V62.944H516.282L518.682 68.128C521.242 64.672 524.474 62.944 528.378 62.944H532.122V75.808H519.93V112H507.162Z" fill="#8B5CF6"/>
<path d="M78.7451 4.64585C81.8871 -0.306008 89.1129 -0.305994 92.2549 4.64586L125.769 57.4639C129.148 62.7902 125.322 69.75 119.014 69.75H51.9862C45.6783 69.75 41.8517 62.7902 45.2313 57.4639L78.7451 4.64585Z" fill="#8B5CF6"/>
<path d="M2.58498 116.929C-1.41539 112.64 0.405372 105.648 5.98917 103.855L65.5476 84.7313C71.5536 82.8028 77.3247 88.2596 75.7352 94.3641L58.8458 159.229C57.2564 165.333 49.5569 167.283 45.2541 162.67L2.58498 116.929Z" fill="#8B5CF6"/>
<path d="M116.194 160.066C111.565 163.667 104.763 161.227 103.477 155.506L89.7619 94.4744C88.3788 88.3199 94.3303 83.0605 100.268 85.19L163.361 107.818C169.298 109.947 170.551 117.79 165.571 121.663L116.194 160.066Z" fill="#8B5CF6"/>
</svg>
